<?xml version="1.0" encoding="UTF-8" standalone="no"?>
<svg
   xmlns:osb="http://www.openswatchbook.org/uri/2009/osb"
   xmlns:dc="http://purl.org/dc/elements/1.1/"
   xmlns:cc="http://creativecommons.org/ns#"
   xmlns:rdf="http://www.w3.org/1999/02/22-rdf-syntax-ns#"
   xmlns:svg="http://www.w3.org/2000/svg"
   xmlns="http://www.w3.org/2000/svg"
   xmlns:xlink="http://www.w3.org/1999/xlink"
   xmlns:sodipodi="http://sodipodi.sourceforge.net/DTD/sodipodi-0.dtd"
   xmlns:inkscape="http://www.inkscape.org/namespaces/inkscape"
   height="480pt"
   viewBox="0 -40 480 480"
   width="480pt"
   version="1.1"
   id="svg26"
   sodipodi:docname="books_gradient2.svg"
   inkscape:version="0.92.4 (5da689c313, 2019-01-14)">
  <metadata
     id="metadata32">
    <rdf:RDF>
      <cc:Work
         rdf:about="">
        <dc:format>image/svg+xml</dc:format>
        <dc:type
           rdf:resource="http://purl.org/dc/dcmitype/StillImage" />
        <dc:title></dc:title>
      </cc:Work>
    </rdf:RDF>
  </metadata>
  <defs
     id="defs30">
    <linearGradient
       id="linearGradient6276">
      <stop
         id="stop6270"
         stop-color="#f9a86d"
         offset="0"
         style="stop-color:#5d6c89;stop-opacity:0.9952153" />
      <stop
         style="stop-color:#3c6cc7;stop-opacity:1"
         id="stop6272"
         stop-color="#f05361"
         offset=".503" />
      <stop
         id="stop6274"
         stop-color="#b72563"
         offset="1"
         style="stop-color:#5dbcc8;stop-opacity:1" />
    </linearGradient>
    <linearGradient
       inkscape:collect="always"
       xlink:href="#linearGradient6276"
       id="linearGradient6284"
       x1="32"
       y1="168"
       x2="112"
       y2="168"
       gradientUnits="userSpaceOnUse" />
    <linearGradient
       inkscape:collect="always"
       xlink:href="#linearGradient6276"
       id="linearGradient6286"
       x1="184"
       y1="192"
       x2="200"
       y2="192"
       gradientUnits="userSpaceOnUse" />
    <linearGradient
       inkscape:collect="always"
       xlink:href="#linearGradient6276"
       id="linearGradient6288"
       x1="168"
       y1="160"
       x2="216"
       y2="160"
       gradientUnits="userSpaceOnUse" />
    <linearGradient
       inkscape:collect="always"
       xlink:href="#linearGradient6276"
       id="linearGradient6290"
       x1="272"
       y1="88"
       x2="352"
       y2="88"
       gradientUnits="userSpaceOnUse" />
    <linearGradient
       inkscape:collect="always"
       xlink:href="#linearGradient6276"
       id="linearGradient6292"
       x1="432"
       y1="168"
       x2="448"
       y2="168"
       gradientUnits="userSpaceOnUse" />
    <linearGradient
       inkscape:collect="always"
       xlink:href="#linearGradient6276"
       id="linearGradient6294"
       x1="0"
       y1="200"
       x2="480"
       y2="200"
       gradientUnits="userSpaceOnUse" />
  </defs>
  <sodipodi:namedview
     pagecolor="#ffffff"
     bordercolor="#666666"
     borderopacity="1"
     objecttolerance="10"
     gridtolerance="10"
     guidetolerance="10"
     inkscape:pageopacity="0"
     inkscape:pageshadow="2"
     inkscape:window-width="1857"
     inkscape:window-height="1160"
     id="namedview28"
     showgrid="false"
     inkscape:zoom="0.36875"
     inkscape:cx="320"
     inkscape:cy="320"
     inkscape:window-x="2487"
     inkscape:window-y="31"
     inkscape:window-maximized="0"
     inkscape:current-layer="svg26" />
  <path
     d="m472 0h-96c-4.417969 0-8 3.582031-8 8v8h-120c-4.417969 0-8 3.582031-8 8v24h-96v-40c0-4.417969-3.582031-8-8-8h-128c-4.417969 0-8 3.582031-8 8v384c0 4.417969 3.582031 8 8 8h464c4.417969 0 8-3.582031 8-8v-384c0-4.417969-3.582031-8-8-8zm-8 192h-80v-16h32v-16h-32v-16h80zm-336 160h-112v-48h112zm336-256h-80v-48h80zm-96 224h-112v-16h112zm-128-200h-96v-16h96zm-224 120h112v16h-112zm112-16h-112v-112h112zm-112 48h112v16h-112zm128-136h96v200h-96zm112 200h112v16h-112zm128-208v-16h80v16zm0-112h80v16h-80zm-128 16h112v256h-112zm-16 32v24h-96v-24zm-112 32h-112v-48h112zm0-80v16h-112v-16zm-112 368v-16h112v16zm128-32h96v32h-96zm112 16h112v16h-112zm128 16v-176h80v176zm0 0"
     fill="url(#b)"
     id="path14"
     style="fill-opacity:1.0;fill:url(#linearGradient6294);fill-rule:nonzero" />
  <path
     d="m432 160h16v16h-16zm0 0"
     fill="url(#c)"
     id="path16"
     style="fill-opacity:1.0;fill:url(#linearGradient6292);fill-rule:nonzero" />
  <path
     d="m312 128c22.089844 0 40-17.910156 40-40s-17.910156-40-40-40-40 17.910156-40 40c.027344 22.082031 17.917969 39.972656 40 40zm0-64c13.253906 0 24 10.746094 24 24s-10.746094 24-24 24-24-10.746094-24-24 10.746094-24 24-24zm0 0"
     fill="url(#d)"
     id="path18"
     style="fill-opacity:1.0;fill:url(#linearGradient6290);fill-rule:nonzero" />
  <path
     d="m168 152h48v16h-48zm0 0"
     fill="url(#e)"
     id="path20"
     style="fill-opacity:1.0;fill:url(#linearGradient6288);fill-rule:nonzero" />
  <path
     d="m184 184h16v16h-16zm0 0"
     fill="url(#f)"
     id="path22"
     style="fill-opacity:1.0;fill:url(#linearGradient6286);fill-rule:nonzero" />
  <path
     d="m72 208c22.089844 0 40-17.910156 40-40s-17.910156-40-40-40-40 17.910156-40 40c.027344 22.082031 17.917969 39.972656 40 40zm0-64c13.253906 0 24 10.746094 24 24s-10.746094 24-24 24-24-10.746094-24-24 10.746094-24 24-24zm0 0"
     fill="url(#c)"
     id="path24"
     style="fill-opacity:1.0;fill:url(#linearGradient6284);fill-rule:nonzero" />
</svg>
