<svg height="480pt" viewBox="0 -40 480 480" width="480pt" xmlns="http://www.w3.org/2000/svg" xmlns:xlink="http://www.w3.org/1999/xlink"><linearGradient id="a"><stop offset="0" stop-color="#f9a86d"/><stop offset=".503" stop-color="#f05361"/><stop offset="1" stop-color="#b72563"/></linearGradient><linearGradient id="b" gradientUnits="userSpaceOnUse" x1="-24" x2="493.04" xlink:href="#a" y1="200" y2="200"/><linearGradient id="c" gradientUnits="userSpaceOnUse" x1="-24" x2="493.04" xlink:href="#a" y1="168" y2="168"/><linearGradient id="d" gradientUnits="userSpaceOnUse" x1="-24" x2="493.04" xlink:href="#a" y1="88" y2="88"/><linearGradient id="e" gradientUnits="userSpaceOnUse" x1="-24" x2="493.04" xlink:href="#a" y1="160" y2="160"/><linearGradient id="f" gradientUnits="userSpaceOnUse" x1="-24" x2="493.04" xlink:href="#a" y1="192" y2="192"/><path d="m472 0h-96c-4.417969 0-8 3.582031-8 8v8h-120c-4.417969 0-8 3.582031-8 8v24h-96v-40c0-4.417969-3.582031-8-8-8h-128c-4.417969 0-8 3.582031-8 8v384c0 4.417969 3.582031 8 8 8h464c4.417969 0 8-3.582031 8-8v-384c0-4.417969-3.582031-8-8-8zm-8 192h-80v-16h32v-16h-32v-16h80zm-336 160h-112v-48h112zm336-256h-80v-48h80zm-96 224h-112v-16h112zm-128-200h-96v-16h96zm-224 120h112v16h-112zm112-16h-112v-112h112zm-112 48h112v16h-112zm128-136h96v200h-96zm112 200h112v16h-112zm128-208v-16h80v16zm0-112h80v16h-80zm-128 16h112v256h-112zm-16 32v24h-96v-24zm-112 32h-112v-48h112zm0-80v16h-112v-16zm-112 368v-16h112v16zm128-32h96v32h-96zm112 16h112v16h-112zm128 16v-176h80v176zm0 0" fill="url(#b)"/><path d="m432 160h16v16h-16zm0 0" fill="url(#c)"/><path d="m312 128c22.089844 0 40-17.910156 40-40s-17.910156-40-40-40-40 17.910156-40 40c.027344 22.082031 17.917969 39.972656 40 40zm0-64c13.253906 0 24 10.746094 24 24s-10.746094 24-24 24-24-10.746094-24-24 10.746094-24 24-24zm0 0" fill="url(#d)"/><path d="m168 152h48v16h-48zm0 0" fill="url(#e)"/><path d="m184 184h16v16h-16zm0 0" fill="url(#f)"/><path d="m72 208c22.089844 0 40-17.910156 40-40s-17.910156-40-40-40-40 17.910156-40 40c.027344 22.082031 17.917969 39.972656 40 40zm0-64c13.253906 0 24 10.746094 24 24s-10.746094 24-24 24-24-10.746094-24-24 10.746094-24 24-24zm0 0" fill="url(#c)"/></svg>