<?xml version="1.0" encoding="UTF-8" standalone="no"?>
<!-- Created with Inkscape (http://www.inkscape.org/) -->

<svg
   xmlns:osb="http://www.openswatchbook.org/uri/2009/osb"
   xmlns:dc="http://purl.org/dc/elements/1.1/"
   xmlns:cc="http://creativecommons.org/ns#"
   xmlns:rdf="http://www.w3.org/1999/02/22-rdf-syntax-ns#"
   xmlns:svg="http://www.w3.org/2000/svg"
   xmlns="http://www.w3.org/2000/svg"
   xmlns:xlink="http://www.w3.org/1999/xlink"
   xmlns:sodipodi="http://sodipodi.sourceforge.net/DTD/sodipodi-0.dtd"
   xmlns:inkscape="http://www.inkscape.org/namespaces/inkscape"
   width="192mm"
   height="192mm"
   viewBox="0 0 192 192"
   version="1.1"
   id="svg8"
   inkscape:version="0.92.4 (5da689c313, 2019-01-14)"
   sodipodi:docname="new_vanpanda_logo_draft.svg"
   inkscape:export-filename="C:\Users\David Chou\Desktop\warden_stashed_ui\public\logo512.png"
   inkscape:export-xdpi="67.73333"
   inkscape:export-ydpi="67.73333">
  <defs
     id="defs2">
    <inkscape:path-effect
       effect="spiro"
       id="path-effect5006"
       is_visible="true" />
    <inkscape:path-effect
       effect="spiro"
       id="path-effect4960"
       is_visible="true" />
    <inkscape:path-effect
       effect="spiro"
       id="path-effect4956"
       is_visible="true" />
    <inkscape:path-effect
       effect="spiro"
       id="path-effect4952"
       is_visible="true" />
    <inkscape:path-effect
       effect="spiro"
       id="path-effect4944"
       is_visible="true" />
    <inkscape:path-effect
       effect="spiro"
       id="path-effect4940"
       is_visible="true" />
    <inkscape:path-effect
       effect="spiro"
       id="path-effect4936"
       is_visible="true" />
    <inkscape:path-effect
       effect="spiro"
       id="path-effect4932"
       is_visible="true" />
    <inkscape:path-effect
       effect="spiro"
       id="path-effect4850"
       is_visible="true" />
    <inkscape:path-effect
       effect="spiro"
       id="path-effect4835"
       is_visible="true" />
    <inkscape:path-effect
       effect="spiro"
       id="path-effect4813"
       is_visible="true" />
    <inkscape:path-effect
       effect="spiro"
       id="path-effect4791"
       is_visible="true" />
    <inkscape:path-effect
       effect="spiro"
       id="path-effect4787"
       is_visible="true" />
    <inkscape:path-effect
       effect="spiro"
       id="path-effect4781"
       is_visible="true" />
    <inkscape:path-effect
       effect="spiro"
       id="path-effect4777"
       is_visible="true" />
    <inkscape:path-effect
       effect="spiro"
       id="path-effect4773"
       is_visible="true" />
    <inkscape:path-effect
       effect="skeletal"
       id="path-effect4769"
       is_visible="true"
       pattern="M 0,5 C 0,2.24 2.24,0 5,0 7.76,0 10,2.24 10,5 10,7.76 7.76,10 5,10 2.24,10 0,7.76 0,5 Z"
       copytype="single_stretched"
       prop_scale="0.26458333"
       scale_y_rel="false"
       spacing="0"
       normal_offset="0"
       tang_offset="0"
       prop_units="false"
       vertical_pattern="false"
       fuse_tolerance="0" />
    <inkscape:path-effect
       effect="skeletal"
       id="path-effect4765"
       is_visible="true"
       pattern="M 0,5 C 0,2.24 2.24,0 5,0 7.76,0 10,2.24 10,5 10,7.76 7.76,10 5,10 2.24,10 0,7.76 0,5 Z"
       copytype="single_stretched"
       prop_scale="0.26458333"
       scale_y_rel="false"
       spacing="0"
       normal_offset="0"
       tang_offset="0"
       prop_units="false"
       vertical_pattern="false"
       fuse_tolerance="0" />
    <inkscape:path-effect
       effect="skeletal"
       id="path-effect4761"
       is_visible="true"
       pattern="M 0,5 C 0,2.24 2.24,0 5,0 7.76,0 10,2.24 10,5 10,7.76 7.76,10 5,10 2.24,10 0,7.76 0,5 Z"
       copytype="single_stretched"
       prop_scale="0.26458333"
       scale_y_rel="false"
       spacing="0"
       normal_offset="0"
       tang_offset="0"
       prop_units="false"
       vertical_pattern="false"
       fuse_tolerance="0" />
    <inkscape:path-effect
       effect="spiro"
       id="path-effect4738"
       is_visible="true" />
    <inkscape:path-effect
       effect="skeletal"
       id="path-effect4734"
       is_visible="true"
       pattern="M 0,5 C 0,2.24 2.24,0 5,0 7.76,0 10,2.24 10,5 10,7.76 7.76,10 5,10 2.24,10 0,7.76 0,5 Z"
       copytype="single_stretched"
       prop_scale="0.26458333"
       scale_y_rel="false"
       spacing="0"
       normal_offset="0"
       tang_offset="0"
       prop_units="false"
       vertical_pattern="false"
       fuse_tolerance="0" />
    <inkscape:path-effect
       effect="spiro"
       id="path-effect4732"
       is_visible="true" />
    <inkscape:path-effect
       effect="spiro"
       id="path-effect4728"
       is_visible="true" />
    <inkscape:path-effect
       effect="spiro"
       id="path-effect4724"
       is_visible="true" />
    <linearGradient
       inkscape:collect="always"
       id="linearGradient7033">
      <stop
         style="stop-color:#000000;stop-opacity:1;"
         offset="0"
         id="stop7029" />
      <stop
         style="stop-color:#000000;stop-opacity:0;"
         offset="1"
         id="stop7031" />
    </linearGradient>
    <linearGradient
       id="linearGradient6995"
       osb:paint="solid">
      <stop
         style="stop-color:#000000;stop-opacity:1;"
         offset="0"
         id="stop6993" />
    </linearGradient>
    <linearGradient
       id="linearGradient6172"
       osb:paint="solid">
      <stop
         style="stop-color:#000000;stop-opacity:1;"
         offset="0"
         id="stop6170" />
    </linearGradient>
    <linearGradient
       inkscape:collect="always"
       xlink:href="#linearGradient7033"
       id="linearGradient7051"
       x1="124.03496"
       y1="97.776794"
       x2="131.43501"
       y2="97.776794"
       gradientUnits="userSpaceOnUse"
       gradientTransform="matrix(1.449518,0,0,1.449518,-27.131105,0.32893889)" />
    <linearGradient
       inkscape:collect="always"
       xlink:href="#linearGradient7033"
       id="linearGradient7059"
       x1="14.886212"
       y1="-94.314682"
       x2="45.769981"
       y2="-94.314682"
       gradientUnits="userSpaceOnUse" />
    <linearGradient
       inkscape:collect="always"
       xlink:href="#linearGradient7033"
       id="linearGradient7063"
       x1="-135.38066"
       y1="-41.02956"
       x2="-104.33365"
       y2="-41.02956"
       gradientUnits="userSpaceOnUse" />
    <inkscape:path-effect
       effect="spiro"
       id="path-effect4791-1"
       is_visible="true" />
    <inkscape:path-effect
       effect="spiro"
       id="path-effect4813-0"
       is_visible="true" />
    <inkscape:path-effect
       effect="spiro"
       id="path-effect4960-3"
       is_visible="true" />
    <inkscape:path-effect
       effect="spiro"
       id="path-effect4787-3"
       is_visible="true" />
  </defs>
  <sodipodi:namedview
     id="base"
     pagecolor="#ffffff"
     bordercolor="#666666"
     borderopacity="1.0"
     inkscape:pageopacity="0.0"
     inkscape:pageshadow="2"
     inkscape:zoom="0.45851455"
     inkscape:cx="48.782257"
     inkscape:cy="651.28888"
     inkscape:document-units="mm"
     inkscape:current-layer="layer6"
     showgrid="false"
     inkscape:snap-page="true"
     inkscape:window-width="1920"
     inkscape:window-height="1017"
     inkscape:window-x="-8"
     inkscape:window-y="-8"
     inkscape:window-maximized="1"
     showguides="false" />
  <metadata
     id="metadata5">
    <rdf:RDF>
      <cc:Work
         rdf:about="">
        <dc:format>image/svg+xml</dc:format>
        <dc:type
           rdf:resource="http://purl.org/dc/dcmitype/StillImage" />
        <dc:title></dc:title>
      </cc:Work>
    </rdf:RDF>
  </metadata>
  <g
     inkscape:groupmode="layer"
     id="layer7"
     inkscape:label="tail"
     transform="translate(0,-105)" />
  <g
     inkscape:label="body"
     inkscape:groupmode="layer"
     id="layer1"
     style="opacity:0.99299999"
     transform="translate(0,-105)">
    <flowRoot
       xml:space="preserve"
       id="flowRoot6314"
       style="font-style:normal;font-weight:normal;font-size:40px;line-height:1.25;font-family:sans-serif;letter-spacing:0px;word-spacing:0px;fill:#000000;fill-opacity:1;stroke:none"><flowRegion
         id="flowRegion6316"><rect
           id="rect6318"
           width="65.945679"
           height="383.34"
           x="450.48288"
           y="177.75108" /></flowRegion><flowPara
         id="flowPara6320" /></flowRoot>  </g>
  <g
     inkscape:groupmode="layer"
     id="layer3"
     inkscape:label="shadow"
     style="opacity:0.35"
     transform="translate(0,-105)" />
  <g
     inkscape:groupmode="layer"
     id="layer4"
     inkscape:label="eyes"
     transform="translate(0,-105)" />
  <g
     inkscape:groupmode="layer"
     id="layer5"
     inkscape:label="light"
     style="display:inline"
     transform="translate(0,-105)" />
  <g
     inkscape:groupmode="layer"
     id="layer6"
     inkscape:label="ears"
     transform="translate(0,-105)">
    <g
       id="g901"
       transform="matrix(1.4425889,0,0,1.5485515,-53.066149,-20.146714)">
      <path
         transform="rotate(57.898862,121.64854,109.01452)"
         inkscape:original-d="m 143.62731,76.254617 c -3.26453,-3.263993 -4.89612,8.976442 -7.34458,13.465061 -2.44846,4.488617 6.25676,4.624099 9.38474,6.936547 3.12798,2.312445 5.16867,-7.072823 7.75261,-10.608837 2.58394,-3.536013 -6.52825,-6.528778 -9.79277,-9.792771 z"
         inkscape:path-effect="#path-effect5006"
         inkscape:connector-curvature="0"
         id="path5004"
         d="m 143.62731,76.254617 c -1.47016,0.114952 -2.89895,0.658188 -4.09843,1.515987 -1.19949,0.857798 -2.16981,2.024859 -2.83145,3.342741 -1.32328,2.635766 -1.36998,5.816033 -0.4147,8.606333 0.67965,1.985194 1.86564,3.821002 3.5163,5.116469 1.65067,1.295467 3.7796,2.019243 5.86844,1.820078 2.41248,-0.230023 4.62882,-1.688524 5.99363,-3.691087 1.36482,-2.002562 1.91424,-4.499306 1.75898,-6.91775 -0.16464,-2.564469 -1.12789,-5.110818 -2.88781,-6.983329 -1.75992,-1.87251 -4.34303,-3.009759 -6.90496,-2.809442 z"
         style="fill:#483e37;fill-opacity:1;stroke:none;stroke-width:0.26458332px;stroke-linecap:butt;stroke-linejoin:miter;stroke-opacity:1" />
      <path
         inkscape:original-d="m 126.9498,102.8245 c -16.4455,-2.6e-4 -32.891273,-2.6e-4 -49.337307,0 -16.446034,2.7e-4 -10.386536,6.73192 -15.580204,10.09828 -5.193665,3.36636 -9.617143,12.69472 -14.426112,19.04247 -4.808969,6.34775 1.923746,23.27387 2.885223,34.9112 0.961475,11.63733 13.656984,9.0401 20.485081,13.56054 6.828097,4.52045 46.163829,-1.15435 69.245349,-1.73113 23.08152,-0.57678 5.57836,-2.88549 8.36714,-4.32783 2.78879,-1.44235 7.6942,-14.04169 11.5409,-21.06213 3.8467,-7.02045 -5.57784,-21.35091 -8.36715,-32.02597 -2.78931,-10.67506 -10.00184,-9.04063 -15.00316,-13.56055"
         inkscape:path-effect="#path-effect4777"
         inkscape:connector-curvature="0"
         id="path4775"
         d="m 126.9498,102.8245 c -15.4368,-7.012378 -33.90051,-7.012378 -49.337307,0 -5.654508,2.56864 -10.895623,6.02077 -15.580204,10.09828 -6.056907,5.27199 -11.236525,11.67317 -14.426112,19.04247 -2.431267,5.61726 -3.676612,11.78498 -3.28254,17.89312 0.394073,6.10814 2.464336,12.14476 6.167763,17.01808 5.024295,6.61145 12.680033,10.72576 20.485081,13.56054 22.190844,8.05968 47.329879,7.04978 69.245349,-1.73113 2.9222,-1.17084 5.81371,-2.4866 8.36714,-4.32783 3.33864,-2.40743 6.02078,-5.674 7.93262,-9.31916 1.91183,-3.64515 3.06709,-7.6626 3.60828,-11.74297 1.48591,-11.20328 -1.75691,-22.8594 -8.36715,-32.02597 -3.97235,-5.50855 -9.12242,-10.16342 -15.00316,-13.56055"
         style="opacity:0.99299999;fill:#f2f2f2;fill-opacity:1;stroke:none;stroke-width:0.26458332px;stroke-linecap:butt;stroke-linejoin:miter;stroke-opacity:1" />
      <path
         transform="translate(-0.40803206,1.63213)"
         sodipodi:nodetypes="cscscscscccscccscc"
         inkscape:original-d="m 78.240159,130.93092 c -2.448456,0.68032 -16.899066,15.50495 -20.503614,16.93333 -3.604548,1.42838 1.088351,3.12798 -2.244176,7.5486 -3.332528,4.42061 0.340291,1.35984 -0.408033,5.30442 -0.748323,3.94457 6.256758,7.34431 9.384739,11.01686 3.127981,3.67256 12.785273,4.21607 19.177511,6.3245 6.392238,2.10843 10.337077,1.49585 15.505221,2.24418 5.168143,0.74832 10.065053,-0.4083 15.097183,-0.61205 5.03214,-0.20375 9.65703,-1.7684 14.48515,-2.65221 4.82811,-0.8838 10.20106,-4.89665 15.3012,-7.34458 5.10014,-2.44792 6.39277,-8.02489 9.58876,-12.03694 3.19598,-4.01206 -2.58394,-8.16091 -3.87631,-12.24097 -1.29237,-4.08006 -6.12022,-5.16867 -9.18072,-7.75261 -3.06051,-2.58394 -9.11246,-3.80856 -13.66908,-5.71245 -4.55662,-1.90388 -11.42463,-2.04042 -17.13735,-3.06024 -5.71271,-1.01981 -8.56841,-0.5443 -12.853011,-0.81606 -4.284601,-0.27176 -7.718343,0.71379 -11.526906,1.12208 -3.808566,0.4083 -4.692107,1.05383 -7.140564,1.73414 z"
         inkscape:path-effect="#path-effect4850"
         inkscape:connector-curvature="0"
         id="path4848"
         d="m 78.240159,130.93092 c -4.353278,1.38583 -8.517809,3.44163 -12.098611,6.27878 -3.580802,2.83715 -6.566325,6.47235 -8.405003,10.65455 -1.058605,2.40787 -1.730487,4.96895 -2.244176,7.5486 -0.347861,1.7469 -0.625902,3.5366 -0.408033,5.30442 0.306946,2.4906 1.596802,4.79105 3.316529,6.61857 1.719727,1.82752 3.853737,3.21786 6.06821,4.39829 5.960072,3.17703 12.570433,4.92361 19.177511,6.3245 5.114129,1.08434 10.284098,1.97963 15.505221,2.24418 5.035313,0.25513 10.083763,-0.0782 15.097183,-0.61205 4.88826,-0.52053 9.77753,-1.23645 14.48515,-2.65221 5.43773,-1.63533 10.57785,-4.19288 15.3012,-7.34458 2.19574,-1.46513 4.3217,-3.07455 6.06205,-5.05927 1.74034,-1.98471 3.08661,-4.37494 3.52671,-6.97767 0.36757,-2.17375 0.0904,-4.43102 -0.6308,-6.51435 -0.72114,-2.08333 -1.87526,-3.99956 -3.24551,-5.72662 -2.50328,-3.15513 -5.72084,-5.69094 -9.18072,-7.75261 -4.25475,-2.53531 -8.89765,-4.38423 -13.66908,-5.71245 -5.59626,-1.55782 -11.36529,-2.40581 -17.13735,-3.06024 -4.26844,-0.48395 -8.55749,-0.86453 -12.853011,-0.81606 -3.864731,0.0436 -7.723466,0.43514 -11.526906,1.12208 -2.412068,0.43564 -4.804962,0.99062 -7.140564,1.73414 z"
         style="opacity:0.35;fill:#b3b3b3;fill-opacity:1;stroke:none;stroke-width:0.26458332px;stroke-linecap:butt;stroke-linejoin:miter;stroke-opacity:1" />
      <path
         transform="translate(-5.7704458,0.86556686)"
         inkscape:original-d="m 77.179711,135.28326 c -0.288787,-2.01939 -7.308966,0.57678 -10.963849,0.86556 -3.65488,0.28879 -4.039047,6.34723 -6.058966,9.52124 -2.019922,3.17401 1.827573,4.71227 2.740962,7.0688 0.913389,2.35653 4.905142,-0.86584 7.357319,-1.29835 2.452174,-0.43252 5.193665,-6.73246 7.7901,-10.09829 2.596436,-3.36582 -0.576781,-4.03957 -0.865566,-6.05896 z"
         inkscape:path-effect="#path-effect4791"
         inkscape:connector-curvature="0"
         id="path4789"
         d="m 77.179711,135.28326 c -0.640032,-0.79619 -1.540232,-1.3677 -2.51594,-1.67028 -0.975707,-0.30257 -2.023672,-0.34287 -3.032255,-0.18064 -2.017164,0.32446 -3.828829,1.42954 -5.415654,2.71648 -2.987737,2.4231 -5.439856,5.72457 -6.058966,9.52124 -0.217674,1.33487 -0.201085,2.72894 0.230167,4.01085 0.431252,1.28191 1.306095,2.44316 2.510795,3.05795 1.162981,0.5935 2.550541,0.64197 3.820928,0.3405 1.270388,-0.30148 2.440111,-0.92967 3.536391,-1.63885 3.655974,-2.36505 6.743807,-5.8716 7.7901,-10.09829 0.254112,-1.02653 0.386014,-2.09286 0.274288,-3.14446 -0.111725,-1.05159 -0.477288,-2.09028 -1.139854,-2.9145 z"
         style="opacity:1;fill:#483e37;fill-opacity:1;stroke:none;stroke-width:0.26458332px;stroke-linecap:butt;stroke-linejoin:miter;stroke-opacity:1" />
      <path
         inkscape:original-d="m 77.179711,135.28326 c -0.288787,-2.01939 -7.308966,0.57678 -10.963849,0.86556 -3.65488,0.28879 -4.039047,6.34723 -6.058966,9.52124 -2.019922,3.17401 1.827573,4.71227 2.740962,7.0688 0.913389,2.35653 4.905142,-0.86584 7.357319,-1.29835 2.452174,-0.43252 5.193665,-6.73246 7.7901,-10.09829 2.596436,-3.36582 -0.576781,-4.03957 -0.865566,-6.05896 z"
         inkscape:path-effect="#path-effect4791-1"
         inkscape:connector-curvature="0"
         id="path4789-3"
         d="m 77.179711,135.28326 c -0.640032,-0.79619 -1.540232,-1.3677 -2.51594,-1.67028 -0.975707,-0.30257 -2.023672,-0.34287 -3.032255,-0.18064 -2.017164,0.32446 -3.828829,1.42954 -5.415654,2.71648 -2.987737,2.4231 -5.439856,5.72457 -6.058966,9.52124 -0.217674,1.33487 -0.201085,2.72894 0.230167,4.01085 0.431252,1.28191 1.306095,2.44316 2.510795,3.05795 1.162981,0.5935 2.550541,0.64197 3.820928,0.3405 1.270388,-0.30148 2.440111,-0.92967 3.536391,-1.63885 3.655974,-2.36505 6.743807,-5.8716 7.7901,-10.09829 0.254112,-1.02653 0.386014,-2.09286 0.274288,-3.14446 -0.111725,-1.05159 -0.477288,-2.09028 -1.139854,-2.9145 z"
         style="opacity:1;fill:#483e37;fill-opacity:1;stroke:none;stroke-width:0.26458332px;stroke-linecap:butt;stroke-linejoin:miter;stroke-opacity:1"
         transform="rotate(107.07484,80.852162,158.21081)" />
      <path
         sodipodi:nodetypes="cccsc"
         transform="matrix(1.0735242,0,0,1,-6.264461,-1.04113)"
         inkscape:original-d="m 76.251003,168.06184 c 0.867333,0.96882 1.544359,2.29492 2.411163,3.26426 0.866804,0.96935 2.345519,0.95182 3.280329,1.1221 0.934807,0.17027 2.134981,-1.5644 3.035787,-1.98917 0.900808,-0.42477 0.532194,-2.27844 1.177981,-3.72329"
         inkscape:path-effect="#path-effect4835"
         inkscape:connector-curvature="0"
         id="path4833"
         d="m 76.251003,168.06184 c 0.489696,1.27882 1.332815,2.42025 2.411163,3.26426 0.466605,0.36521 0.979101,0.67696 1.534829,0.88254 0.555728,0.20558 1.156346,0.30275 1.7455,0.23956 0.620204,-0.0665 1.215361,-0.3099 1.729253,-0.66344 0.513892,-0.35355 0.948585,-0.8149 1.306534,-1.32573 0.758697,-1.08275 1.175827,-2.40119 1.177981,-3.72329"
         style="opacity:1;fill:none;stroke:#000000;stroke-width:0.26458332px;stroke-linecap:butt;stroke-linejoin:miter;stroke-opacity:0.63137255" />
      <path
         inkscape:original-d="m 67.369954,162.26009 c 0.240699,1.92322 0.481134,3.8467 0.721304,5.77045 0.24017,1.92374 1.53905,0.96147 2.308178,1.44261 0.76913,0.48113 3.462533,-1.63523 5.193403,-2.45244"
         inkscape:path-effect="#path-effect4813"
         inkscape:connector-curvature="0"
         id="path4811"
         d="m 67.369954,162.26009 c -0.476147,0.91432 -0.6668,1.97477 -0.538937,2.99767 0.127863,1.02291 0.573683,2.0038 1.260241,2.77278 0.612834,0.6864 1.419299,1.20468 2.308178,1.44261 1.005398,0.26912 2.105062,0.17008 3.046197,-0.27435 0.941134,-0.44442 1.716267,-1.2307 2.147206,-2.17809"
         style="opacity:1;fill:none;stroke:#000000;stroke-width:0.26499999;stroke-linecap:butt;stroke-linejoin:miter;stroke-miterlimit:4;stroke-dasharray:none;stroke-opacity:0.63106791" />
      <path
         inkscape:original-d="m 56.117585,118.11618 c 5.049403,-0.62539 10.098542,-1.25053 15.147419,-1.87539 5.048874,-0.62487 8.559758,-6.54011 12.839242,-9.80976 4.279482,-3.26966 1.923746,-4.7128 2.885223,-7.068798"
         inkscape:path-effect="#path-effect4936"
         inkscape:connector-curvature="0"
         id="path4934"
         d="m 56.117585,118.11618 c 5.103199,0.55931 10.334713,-0.0884 15.147419,-1.87539 5.137542,-1.9076 9.872332,-5.20208 12.839242,-9.80976 1.385658,-2.15196 2.369287,-4.56185 2.885223,-7.068798"
         style="display:inline;fill:#f9f9f9;stroke:none;stroke-width:0.26458332px;stroke-linecap:butt;stroke-linejoin:miter;stroke-opacity:1" />
      <path
         sodipodi:nodetypes="ccc"
         transform="translate(5.1934031,2.30818)"
         inkscape:original-d="m 50.924182,115.808 c 3.17401,-3.75105 8.969208,-6.61152 12.142689,-10.36204 3.173479,-3.75053 12.141536,-5.939733 18.729195,-8.391908"
         inkscape:path-effect="#path-effect4940"
         inkscape:connector-curvature="0"
         id="path4938"
         d="m 50.924182,115.808 c 3.596017,-3.94065 7.685553,-7.43048 12.142689,-10.36204 5.740258,-3.77549 12.090777,-6.620943 18.729195,-8.391908"
         style="display:inline;fill:#f9f9f9;fill-opacity:1;stroke:none;stroke-width:0.26458332px;stroke-linecap:butt;stroke-linejoin:miter;stroke-opacity:1" />
      <path
         sodipodi:nodetypes="ccc"
         transform="translate(-13.77694,-4.39996)"
         inkscape:original-d="m 170.89193,135.35563 c -0.8653,-3.91936 -8.64597,-10.96435 -9.53584,-14.85914 -0.88988,-3.89479 -7.2128,-5.57836 -10.81959,-8.36715"
         inkscape:path-effect="#path-effect4952"
         inkscape:connector-curvature="0"
         id="path4950"
         d="m 170.89193,135.35563 c -2.1836,-5.50463 -5.44127,-10.58087 -9.53584,-14.85914 -3.16402,-3.30598 -6.82406,-6.1364 -10.81959,-8.36715"
         style="display:inline;fill:#f9f9f9;stroke:none;stroke-width:0.26458332px;stroke-linecap:butt;stroke-linejoin:miter;stroke-opacity:1" />
      <path
         sodipodi:nodetypes="cccc"
         transform="matrix(0.97481022,0,0,0.94161221,3.5846538,4.2525066)"
         inkscape:original-d="m 136.6153,109.8933 c 1.15435,4.97674 2.30844,9.95375 3.46227,14.93102 1.15382,4.97728 9.71385,5.96253 14.57037,8.9442 4.85653,2.98166 2.15475,-0.67323 2.32279,-0.64893"
         inkscape:path-effect="#path-effect4956"
         inkscape:connector-curvature="0"
         id="path4954"
         d="m 136.6153,109.8933 c -0.26757,5.16931 0.94697,10.40702 3.46227,14.93102 1.47528,2.65342 3.42359,5.09406 5.93789,6.79565 2.5143,1.70158 5.63261,2.6153 8.63248,2.14855 0.7962,-0.12388 1.57767,-0.3422 2.32279,-0.64893"
         style="display:inline;fill:#f9f9f9;stroke:none;stroke-width:0.26458332px;stroke-linecap:butt;stroke-linejoin:miter;stroke-opacity:1" />
      <path
         transform="translate(-13.585901,4.8381426)"
         inkscape:original-d="m 87.318875,112.56948 c -4.896122,-4.2166 -9.792506,-8.43293 -14.689158,-12.649001 -4.896649,-4.216066 -2.719949,13.328781 -4.08032,19.993571"
         inkscape:path-effect="#path-effect4960"
         inkscape:connector-curvature="0"
         id="path4958"
         d="m 87.318875,112.56948 c 0.522205,-3.79893 -0.998102,-7.81795 -3.903879,-10.32015 -2.905777,-2.502199 -7.105942,-3.409134 -10.785279,-2.328851 -2.001031,0.587521 -3.836239,1.729321 -5.247487,3.264791 -1.411248,1.53548 -2.394534,3.46027 -2.81155,5.50365 -0.417016,2.04338 -0.26658,4.19955 0.430147,6.16522 0.696728,1.96568 1.937773,3.73528 3.54857,5.05991"
         style="fill:#483e37;stroke:none;stroke-width:0.26458332px;stroke-linecap:butt;stroke-linejoin:miter;stroke-opacity:1" />
      <path
         transform="matrix(0.54148287,0.9711483,-0.91334372,0.57575276,187.89414,-5.2593751)"
         inkscape:original-d="m 87.318875,112.56948 c -4.896122,-4.2166 -9.792506,-8.43293 -14.689158,-12.649001 -4.896649,-4.216066 -2.719949,13.328781 -4.08032,19.993571"
         inkscape:path-effect="#path-effect4960-3"
         inkscape:connector-curvature="0"
         id="path4958-8"
         d="m 87.318875,112.56948 c 0.522205,-3.79893 -0.998102,-7.81795 -3.903879,-10.32015 -2.905777,-2.502199 -7.105942,-3.409134 -10.785279,-2.328851 -2.001031,0.587521 -3.836239,1.729321 -5.247487,3.264791 -1.411248,1.53548 -2.394534,3.46027 -2.81155,5.50365 -0.417016,2.04338 -0.26658,4.19955 0.430147,6.16522 0.696728,1.96568 1.937773,3.73528 3.54857,5.05991"
         style="fill:#483e37;stroke:none;stroke-width:0.26458332px;stroke-linecap:butt;stroke-linejoin:miter;stroke-opacity:1" />
    </g>
  </g>
</svg>
