<?xml version="1.0" encoding="UTF-8" standalone="no"?>
<svg
   xmlns:dc="http://purl.org/dc/elements/1.1/"
   xmlns:cc="http://creativecommons.org/ns#"
   xmlns:rdf="http://www.w3.org/1999/02/22-rdf-syntax-ns#"
   xmlns:svg="http://www.w3.org/2000/svg"
   xmlns="http://www.w3.org/2000/svg"
   xmlns:xlink="http://www.w3.org/1999/xlink"
   xmlns:sodipodi="http://sodipodi.sourceforge.net/DTD/sodipodi-0.dtd"
   xmlns:inkscape="http://www.inkscape.org/namespaces/inkscape"
   height="477pt"
   viewBox="-32 0 477 477.44016"
   width="477pt"
   version="1.1"
   id="svg10"
   sodipodi:docname="quiz.svg"
   inkscape:version="0.92.4 (5da689c313, 2019-01-14)">
  <metadata
     id="metadata16">
    <rdf:RDF>
      <cc:Work
         rdf:about="">
        <dc:format>image/svg+xml</dc:format>
        <dc:type
           rdf:resource="http://purl.org/dc/dcmitype/StillImage" />
      </cc:Work>
    </rdf:RDF>
  </metadata>
  <defs
     id="defs14">
    <linearGradient
       id="linearGradient6276">
      <stop
         id="stop6270"
         stop-color="#f9a86d"
         offset="0"
         style="stop-color:#5d6c89;stop-opacity:0.9952153" />
      <stop
         style="stop-color:#3c6cc7;stop-opacity:1"
         id="stop6272"
         stop-color="#f05361"
         offset=".503" />
      <stop
         id="stop6274"
         stop-color="#b72563"
         offset="1"
         style="stop-color:#5dbcc8;stop-opacity:1" />
    </linearGradient>
    <linearGradient
       inkscape:collect="always"
       xlink:href="#linearGradient6276"
       id="linearGradient828"
       x1="64.292969"
       y1="248"
       x2="136.29297"
       y2="248"
       gradientUnits="userSpaceOnUse" />
    <linearGradient
       inkscape:collect="always"
       xlink:href="#linearGradient6276"
       id="linearGradient830"
       x1="64.292969"
       y1="200"
       x2="288.29297"
       y2="200"
       gradientUnits="userSpaceOnUse" />
    <linearGradient
       inkscape:collect="always"
       xlink:href="#linearGradient6276"
       id="linearGradient832"
       x1="64.292969"
       y1="152"
       x2="288.29297"
       y2="152"
       gradientUnits="userSpaceOnUse" />
    <linearGradient
       inkscape:collect="always"
       xlink:href="#linearGradient6276"
       id="linearGradient834"
       x1="0.21875"
       y1="238.72076"
       x2="413.72375"
       y2="238.72076"
       gradientUnits="userSpaceOnUse" />
  </defs>
  <sodipodi:namedview
     pagecolor="#ffffff"
     bordercolor="#666666"
     borderopacity="1"
     objecttolerance="10"
     gridtolerance="10"
     guidetolerance="10"
     inkscape:pageopacity="0"
     inkscape:pageshadow="2"
     inkscape:window-width="2400"
     inkscape:window-height="1271"
     id="namedview12"
     showgrid="false"
     inkscape:zoom="0.37106918"
     inkscape:cx="-136.09322"
     inkscape:cy="318"
     inkscape:window-x="2391"
     inkscape:window-y="-9"
     inkscape:window-maximized="1"
     inkscape:current-layer="svg10" />
  <path
     d="m399.628906 395.457031-47.335937-47.351562v-340.105469c0-4.417969-3.582031-8-8-8h-240c-.152344 0-.296875.078125-.449219.0898438-.734375.0351562-1.460938.1835942-2.152344.4296872-.234375.070313-.46875.152344-.695312.25-.890625.382813-1.703125.925781-2.398438 1.597657l-96 96c-.671875.679687-1.214844 1.472656-1.601562 2.34375-.113282.25-.175782.496093-.265625.753906-.230469.664062-.367188 1.355468-.40625 2.054687 0 .175781-.105469.328125-.105469.503907v303.976562c0 4.417969 3.582031 8 8 8h276.175781l47.34375 47.320312c8.964844 9.066407 21.195313 14.152344 33.945313 14.121094 19.433594.015625 36.957031-11.6875 44.390625-29.644531 7.429687-17.953125 3.304687-38.617187-10.453125-52.339844zm-67.816406 45.34375-124.519531-124.480469 45.320312-45.328124 124.480469 124.527343zm-131.289062-140.34375-10.847657-47.066406 47.074219 10.839844zm-104.230469-273.144531v68.6875h-68.6875zm-80 372.6875v-288h88c4.417969 0 8-3.582031 8-8v-88h224v316.097656l-78.015625-78.074218-.089844-.054688c-.660156-.628906-1.421875-1.140625-2.253906-1.511719-.226563-.097656-.441406-.167969-.664063-.25-.28125-.125-.566406-.234375-.859375-.328125l-73.597656-16.957031c-2.691406-.625-5.511719.183594-7.464844 2.132813-1.953125 1.953124-2.757812 4.777343-2.136718 7.464843l16.960937 73.601563c.09375.292968.203125.582031.328125.863281.082031.214844.144531.429687.25.648437.367188.84375.886719 1.617188 1.527344 2.277344l.039062.066406 78.070313 78.023438zm372 52.039062c-5.984375 6.003907-14.113281 9.378907-22.589844 9.378907s-16.605469-3.375-22.585937-9.378907l3.765624-3.773437 41.480469-41.472656c6.003907 5.992187 9.375 14.132812 9.359375 22.617187-.011718 8.484375-3.40625 16.613282-9.429687 22.589844zm0 0"
     id="path2"
     style="fill:url(#linearGradient834);fill-opacity:1.0" />
  <path
     d="m72.292969 160h208c4.417969 0 8-3.582031 8-8s-3.582031-8-8-8h-208c-4.417969 0-8 3.582031-8 8s3.582031 8 8 8zm0 0"
     id="path4"
     style="fill:url(#linearGradient832);fill-opacity:1.0" />
  <path
     d="m72.292969 208h208c4.417969 0 8-3.582031 8-8s-3.582031-8-8-8h-208c-4.417969 0-8 3.582031-8 8s3.582031 8 8 8zm0 0"
     id="path6"
     style="fill:url(#linearGradient830);fill-opacity:1.0" />
  <path
     d="m128.292969 240h-56c-4.417969 0-8 3.582031-8 8s3.582031 8 8 8h56c4.417969 0 8-3.582031 8-8s-3.582031-8-8-8zm0 0"
     id="path8"
     style="fill:url(#linearGradient828);fill-opacity:1.0" />
</svg>
