<?xml version="1.0" encoding="UTF-8" standalone="no"?>
<svg
   xmlns:dc="http://purl.org/dc/elements/1.1/"
   xmlns:cc="http://creativecommons.org/ns#"
   xmlns:rdf="http://www.w3.org/1999/02/22-rdf-syntax-ns#"
   xmlns:svg="http://www.w3.org/2000/svg"
   xmlns="http://www.w3.org/2000/svg"
   xmlns:sodipodi="http://sodipodi.sourceforge.net/DTD/sodipodi-0.dtd"
   xmlns:inkscape="http://www.inkscape.org/namespaces/inkscape"
   viewBox="0 0 400.65732 290.00535"
   height="290.00534"
   width="400.65732"
   xml:space="preserve"
   id="svg2"
   version="1.1"
   sodipodi:docname="ubc_logo.svg"
   inkscape:version="0.92.4 (5da689c313, 2019-01-14)"><sodipodi:namedview
     pagecolor="#ffffff"
     bordercolor="#666666"
     borderopacity="1"
     objecttolerance="10"
     gridtolerance="10"
     guidetolerance="10"
     inkscape:pageopacity="0"
     inkscape:pageshadow="2"
     inkscape:window-width="1920"
     inkscape:window-height="1017"
     id="namedview89"
     showgrid="false"
     inkscape:zoom="1.6206223"
     inkscape:cx="255.9426"
     inkscape:cy="129.73764"
     inkscape:window-x="-8"
     inkscape:window-y="-8"
     inkscape:window-maximized="1"
     inkscape:current-layer="svg2" /><metadata
     id="metadata8"><rdf:RDF><cc:Work
         rdf:about=""><dc:format>image/svg+xml</dc:format><dc:type
           rdf:resource="http://purl.org/dc/dcmitype/StillImage" /><dc:title></dc:title></cc:Work></rdf:RDF></metadata><defs
     id="defs6"><clipPath
       id="clipPath18"
       clipPathUnits="userSpaceOnUse"><path
         id="path16"
         d="M 0,117.004 H 371.743 V 0 H 0 Z"
         inkscape:connector-curvature="0" /></clipPath></defs><g
     id="g1187"
     transform="matrix(3.2999022,0,0,3.1665203,-19.138883,-100.4067)"><g
       id="g1160"><g
         id="g20"
         transform="matrix(1.3333333,0,0,-1.3333333,66.004532,66.428266)"><path
           inkscape:connector-curvature="0"
           d="m 0,0 2.639,-19.144 8.673,14.493 -3.68,-15.941 9.35,8.946 -4.869,-11.81 7.78,5.806 C 16.271,-27.505 13.116,-33.03 0,-37.52 c -13.116,4.49 -16.271,10.015 -19.892,19.87 l 7.779,-5.806 -4.869,11.81 9.35,-8.946 -3.68,15.941 8.673,-14.493 z"
           style="fill:#0c1d3c;fill-opacity:1;fill-rule:nonzero;stroke:none"
           id="path22" /></g><g
         id="g24"
         transform="matrix(1.3333333,0,0,-1.3333333,47.684932,57.876132)"><path
           inkscape:connector-curvature="0"
           d="m 0,0 c -3.974,0 -6.347,2.127 -6.347,5.7 v 8.554 h 3.295 V 5.835 c 0,-2.076 1.091,-3.218 3.077,-3.218 2.038,0 3.118,1.094 3.118,3.159 v 8.478 H 6.459 V 5.757 C 6.459,2.205 3.984,0 0,0"
           style="fill:#0c1d3c;fill-opacity:1;fill-rule:nonzero;stroke:none"
           id="path26" /></g><g
         id="g28"
         transform="matrix(1.3333333,0,0,-1.3333333,66.169332,57.560399)"><path
           inkscape:connector-curvature="0"
           d="m 0,0 h -4.601 v 14.017 h 4.669 c 3.414,0 5.295,-1.325 5.295,-3.723 C 5.363,9.033 4.705,8.062 3.449,7.467 5.133,6.873 5.988,5.76 5.988,4.153 5.988,1.473 3.863,0 0,0 M -1.418,2.341 H 0 c 1.282,0 2.805,0.327 2.805,1.89 0,1.61 -1.549,1.953 -2.852,1.953 h -1.371 z m 0,6.045 h 1.197 c 1.604,0 2.491,0.602 2.491,1.692 0,1.073 -0.773,1.596 -2.36,1.596 h -1.328 z"
           style="fill:#0c1d3c;fill-opacity:1;fill-rule:nonzero;stroke:none"
           id="path30" /></g><g
         id="g32"
         transform="matrix(1.3333333,0,0,-1.3333333,86.458398,57.876132)"><path
           inkscape:connector-curvature="0"
           d="m 0,0 c -4.537,0 -7.467,2.833 -7.467,7.227 0,4.341 3.037,7.261 7.556,7.261 1.676,0 3.087,-0.33 4.311,-1.009 l 0.108,-0.06 -0.492,-2.855 -0.217,0.145 c -1.203,0.808 -2.348,1.181 -3.598,1.181 -2.695,0 -4.306,-1.738 -4.306,-4.646 0,-2.854 1.666,-4.627 4.351,-4.627 1.272,0 2.524,0.382 3.826,1.166 L 4.287,3.912 4.751,1.25 4.648,1.189 C 3.311,0.424 1.66,0 0,0"
           style="fill:#0c1d3c;fill-opacity:1;fill-rule:nonzero;stroke:none"
           id="path34" /></g><g
         id="g36"
         transform="matrix(1.3333333,0,0,-1.3333333,66.004532,120.41453)"><path
           inkscape:connector-curvature="0"
           d="m 0,0 c -15.484,4.387 -22.875,14.61 -22.875,29.184 v 34.498 h 45.75 V 29.184 C 22.875,14.61 15.484,4.387 0,0 M -24.75,65.557 V 28.949 C -24.75,13.564 -16.379,2.426 0,-1.943 16.379,2.426 24.75,13.564 24.75,28.949 v 36.608 z"
           style="fill:#0c1d3c;fill-opacity:1;fill-rule:nonzero;stroke:none"
           id="path38" /></g><g
         id="g40"
         transform="matrix(1.3333333,0,0,-1.3333333,66.005865,64.179599)"><path
           inkscape:connector-curvature="0"
           d="M 0,0 C 3.451,0 3.918,-1.4 6.697,-1.383 9.467,-1.4 9.941,0 13.393,0 c 3.45,0 3.925,-1.4 6.697,-1.383 V 1.831 C 17.318,1.812 16.843,3.195 13.393,3.195 9.941,3.195 9.467,1.812 6.697,1.831 3.918,1.812 3.451,3.195 0,3.195 c -3.451,0 -3.918,-1.383 -6.697,-1.364 -2.77,-0.019 -3.245,1.364 -6.696,1.364 -3.451,0 -3.927,-1.383 -6.697,-1.364 V -1.383 C -17.32,-1.4 -16.844,0 -13.393,0 -9.942,0 -9.467,-1.4 -6.697,-1.383 -3.918,-1.4 -3.451,0 0,0"
           style="fill:#0c1d3c;fill-opacity:1;fill-rule:nonzero;stroke:none"
           id="path42" /></g><g
         id="g44"
         transform="matrix(1.3333333,0,0,-1.3333333,68.921198,71.923732)"><path
           inkscape:connector-curvature="0"
           d="m 0,0 c 1.665,-0.398 2.457,-1.159 4.511,-1.146 2.769,-0.017 3.244,1.383 6.695,1.383 3.451,0 3.926,-1.4 6.697,-1.383 V 2.068 C 15.132,2.049 14.657,3.432 11.206,3.432 7.755,3.432 7.28,2.049 4.511,2.068 2.279,2.053 1.537,2.941 -0.454,3.292 Z"
           style="fill:#0c1d3c;fill-opacity:1;fill-rule:nonzero;stroke:none"
           id="path46" /></g><g
         id="g48"
         transform="matrix(1.3333333,0,0,-1.3333333,57.076132,73.451732)"><path
           inkscape:connector-curvature="0"
           d="M 0,0 C 2.053,-0.013 2.845,0.747 4.509,1.146 L 4.963,4.437 C 2.973,4.086 2.23,3.199 0,3.214 -2.77,3.195 -3.245,4.578 -6.695,4.578 c -3.452,0 -3.928,-1.383 -6.698,-1.364 V 0 c 2.77,-0.017 3.246,1.383 6.698,1.383 3.45,0 3.925,-1.4 6.695,-1.383"
           style="fill:#0c1d3c;fill-opacity:1;fill-rule:nonzero;stroke:none"
           id="path50" /></g><g
         id="g52"
         transform="matrix(1.3333333,0,0,-1.3333333,69.988265,79.663999)"><path
           inkscape:connector-curvature="0"
           d="M 0,0 C 0.941,-0.324 1.665,-0.719 2.783,-0.859 L 4.712,2.364 C 4.411,2.323 4.082,2.3 3.71,2.302 1.801,2.29 0.983,2.938 -0.461,3.345 Z"
           style="fill:#0c1d3c;fill-opacity:1;fill-rule:nonzero;stroke:none"
           id="path54" /></g><g
         id="g56"
         transform="matrix(1.3333333,0,0,-1.3333333,81.768265,79.189332)"><path
           inkscape:connector-curvature="0"
           d="m 0,0 c 0.451,0.071 0.964,0.115 1.571,0.115 3.45,0 3.926,-1.4 6.697,-1.383 V 1.946 C 5.497,1.928 5.021,3.311 1.571,3.311 1.279,3.311 1.01,3.3 0.758,3.282 Z"
           style="fill:#0c1d3c;fill-opacity:1;fill-rule:nonzero;stroke:none"
           id="path58" /></g><g
         id="g60"
         transform="matrix(1.3333333,0,0,-1.3333333,50.241599,79.189332)"><path
           inkscape:connector-curvature="0"
           d="m 0,0 -0.758,3.282 c -0.252,0.018 -0.52,0.029 -0.811,0.029 -3.452,0 -3.928,-1.383 -6.698,-1.365 v -3.214 c 2.77,-0.017 3.246,1.383 6.698,1.383 C -0.964,0.115 -0.451,0.071 0,0"
           style="fill:#0c1d3c;fill-opacity:1;fill-rule:nonzero;stroke:none"
           id="path62" /></g><g
         id="g64"
         transform="matrix(1.3333333,0,0,-1.3333333,58.310532,80.809732)"><path
           inkscape:connector-curvature="0"
           d="M 0,0 C 1.118,0.14 1.842,0.535 2.783,0.859 L 3.244,4.204 C 1.801,3.797 0.983,3.149 -0.926,3.162 -1.298,3.159 -1.627,3.183 -1.929,3.224 Z"
           style="fill:#0c1d3c;fill-opacity:1;fill-rule:nonzero;stroke:none"
           id="path66" /></g></g></g></svg>